<svg xmlns="http://www.w3.org/2000/svg" xmlns:xlink="http://www.w3.org/1999/xlink" version="1.1" id="Layer_1" x="0px" y="0px" width="275.833px" height="310px" viewBox="0 0 275.833 310" enable-background="new 0 0 275.833 310" xml:space="preserve"><g><g><path fill="#29B5E8" d="M152.5 55.565c0 0.3 0.4 1.101-0.07 1.101h-30.98c-0.424 0-0.95-0.836-0.95-1.101V41.099 c0-0.265 0.525-0.433 0.95-0.433h30.98c0.425 0 0.1 0.2 0.1 0.433V55.565z"/><rect x="127.5" y="56.7" fill="#29B5E8" width="20" height="11"/><rect x="124.5" y="40.7" opacity="0.4" fill="#FFFFFF" width="5" height="16"/><rect x="134.5" y="40.7" opacity="0.4" fill="#FFFFFF" width="4" height="16"/><rect x="144.5" y="40.7" opacity="0.4" fill="#FFFFFF" width="4" height="16"/></g><g><g><rect x="54.7" y="91.2" transform="matrix(0.7071 -0.7071 0.7071 0.7071 -48.1259 71.9984)" fill="#29B5E8" width="16.2" height="5.9"/></g><path fill="#80D2EC" d="M68.463 82.804c0.431 0.4 0.4 1.1 0 1.562L53.12 99.71c-0.431 0.431-1.131 0.431-1.562 0 l-6.731-6.731c-0.431-0.432-0.431-1.131 0-1.563L60.17 76.073c0.431-0.432 1.131-0.432 1.6 0L68.463 82.804z"/></g><g><g><rect x="201.2" y="91.2" transform="matrix(0.7071 0.7071 -0.7071 0.7071 127.8291 -120.4354)" fill="#29B5E8" width="16.2" height="5.9"/></g><path fill="#80D2EC" d="M220.584 99.71c-0.432 0.431-1.131 0.431-1.562 0l-15.344-15.343c-0.432-0.432-0.432-1.131-0.001-1.562 l6.732-6.731c0.432-0.431 1.131-0.431 1.6 0l15.344 15.343c0.431 0.4 0.4 1.1 0 1.563L220.584 99.71z"/></g><circle opacity="0.4" fill="#29B5E8" cx="136.1" cy="168.3" r="101.5"/><circle fill="#29B5E8" cx="136.1" cy="168.3" r="89.8"/><path fill="#FFFFFF" d="M139.5 92.868c0 0.441-0.357 0.799-0.799 0.799h-3.402c-0.441 0-0.799-0.357-0.799-0.799v-9.402 c0-0.441 0.357-0.799 0.799-0.799h3.402c0.441 0 0.8 0.4 0.8 0.799V92.868z"/><path fill="#FFFFFF" d="M139.5 252.867c0 0.442-0.357 0.8-0.799 0.8h-3.402c-0.441 0-0.799-0.357-0.799-0.8v-9.4 c0-0.442 0.357-0.8 0.799-0.8h3.402c0.441 0 0.8 0.4 0.8 0.8V252.867z"/><path fill="#FFFFFF" d="M219.5 170.868c0 0.441-0.357 0.799-0.799 0.799h-9.402c-0.441 0-0.799-0.357-0.799-0.799v-3.402 c0-0.441 0.357-0.799 0.799-0.799h9.402c0.441 0 0.8 0.4 0.8 0.799V170.868z"/><path fill="#FFFFFF" d="M62.5 170.868c0 0.441-0.358 0.799-0.8 0.799h-9.4c-0.442 0-0.8-0.357-0.8-0.799v-3.402 c0-0.441 0.358-0.799 0.8-0.799h9.4c0.442 0 0.8 0.4 0.8 0.799V170.868z"/><path fill="#FFFFFF" d="M193.246 119.355c-0.302 0.322-0.808 0.339-1.13 0.038l-2.127-1.99c-0.322-0.302-0.34-0.807-0.037-1.129 l6.613-7.069c0.302-0.322 0.807-0.338 1.129-0.037l2.127 1.99c0.322 0.3 0.3 0.8 0 1.13L193.246 119.355z"/><path fill="#FFFFFF" d="M82.953 116.897c0.29 0.3 0.3 0.837-0.078 1.127l-2.195 1.915c-0.333 0.29-0.838 0.255-1.127-0.077 l-6.361-7.296c-0.29-0.333-0.255-0.837 0.078-1.127l2.195-1.914c0.333-0.29 0.837-0.256 1.1 0.077L82.953 116.897z"/><path fill="#FFFFFF" d="M190.483 216.637c-0.332-0.291-0.836-0.256-1.127 0.076l-1.914 2.195c-0.29 0.334-0.255 0.8 0.1 1.1 l7.297 6.36c0.332 0.3 0.8 0.3 1.127-0.076l1.914-2.196c0.29-0.333 0.255-0.838-0.077-1.128L190.483 216.637z"/><path fill="#FFFFFF" d="M85.659 221.606c0.29-0.332 0.255-0.837-0.077-1.127l-2.196-1.914c-0.333-0.291-0.837-0.256-1.127 0.1 l-6.36 7.295c-0.29 0.333-0.255 0.8 0.1 1.128l2.196 1.913c0.333 0.3 0.8 0.3 1.128-0.076L85.659 221.606z"/></g></svg>